<svg width="28" height="27" viewBox="0 0 28 27" fill="none" xmlns="http://www.w3.org/2000/svg">
<path d="M9.04983 23.625H5.8717V10.575L3.81858 5.625H1.3717V3.375H5.33733L7.19358 7.875H25.6436L21.6217 15.7781C22.578 15.9281 23.3797 16.3687 24.027 17.1C24.6735 17.8313 24.9967 18.6938 24.9967 19.6875C24.9967 20.775 24.6172 21.7031 23.8582 22.4719C23.0985 23.2406 22.1748 23.625 21.0873 23.625C19.9811 23.625 19.0485 23.2406 18.2895 22.4719C17.5297 21.7031 17.1498 20.775 17.1498 19.6875C17.1498 19.3125 17.1967 18.9656 17.2905 18.6469C17.3842 18.3281 17.5155 18.0188 17.6842 17.7188L13.9998 17.3812L9.04983 23.625ZM19.203 15.6094L21.9873 10.125L8.1217 10.1531L10.0623 14.7656L19.203 15.6094ZM8.1217 15.4125V21.3469L11.4686 17.1562L8.74045 16.9031L8.1217 15.4125ZM21.0592 21.375C21.5467 21.375 21.9498 21.2108 22.2686 20.8822C22.5873 20.5545 22.7467 20.1562 22.7467 19.6875C22.7467 19.2 22.5873 18.7969 22.2686 18.4781C21.9498 18.1594 21.5467 18 21.0592 18C20.5905 18 20.1922 18.1594 19.8645 18.4781C19.536 18.7969 19.3717 19.2 19.3717 19.6875C19.3717 20.1562 19.536 20.5545 19.8645 20.8822C20.1922 21.2108 20.5905 21.375 21.0592 21.375ZM19.203 15.6094L10.0623 14.7656L19.203 15.6094Z" fill="#3734A9"/>
</svg>
