<svg width="3" height="3" viewBox="0 0 3 3" fill="none" xmlns="http://www.w3.org/2000/svg">
<path d="M1.18164 2.67188C0.931641 2.67188 0.732422 2.59766 0.583984 2.44922C0.439453 2.30078 0.367188 2.07617 0.367188 1.77539C0.367188 1.54883 0.404297 1.3457 0.478516 1.16602C0.556641 0.982422 0.667969 0.837891 0.8125 0.732422C0.960938 0.623047 1.13867 0.568359 1.3457 0.568359C1.51367 0.568359 1.6582 0.601562 1.7793 0.667969C1.90039 0.734375 1.99414 0.835938 2.06055 0.972656C2.12695 1.10547 2.16016 1.27344 2.16016 1.47656C2.16016 1.69531 2.12109 1.89648 2.04297 2.08008C1.96484 2.25977 1.85156 2.4043 1.70312 2.51367C1.55859 2.61914 1.38477 2.67188 1.18164 2.67188Z" fill="#667479"/>
</svg>
