<svg width="232" height="47" viewBox="0 0 232 47" fill="none" xmlns="http://www.w3.org/2000/svg">
<path d="M30.967 23.498C30.967 19.3792 27.6159 16.0281 23.4971 16.0281C19.3782 16.0281 16.0271 19.3792 16.0271 23.498C16.0271 27.6169 19.3782 30.968 23.4971 30.968C27.6159 30.968 30.967 27.6169 30.967 23.498ZM23.4971 24.8162C22.7702 24.8162 22.1789 24.2249 22.1789 23.498C22.1789 22.7712 22.7703 22.1798 23.4971 22.1798C24.224 22.1798 24.8153 22.7712 24.8153 23.498C24.8153 24.2249 24.224 24.8162 23.4971 24.8162Z" fill="black"/>
<path d="M20.6856 28.4693C21.5161 28.9407 22.4758 29.2103 23.4971 29.2103C24.5185 29.2103 25.4782 28.9407 26.3087 28.4693M25.5956 25.7447C26.4142 26.1022 27.1377 26.663 27.6863 27.3777C28.631 26.3583 29.2095 24.9945 29.2095 23.498C29.2095 20.3481 26.6467 17.7857 23.4971 17.7857C20.3472 17.7857 17.7848 20.3484 17.7848 23.498C17.7848 24.9945 18.3636 26.3579 19.3083 27.3774C19.8569 26.6631 20.5804 26.1019 21.3987 25.7447C20.7976 25.1829 20.4213 24.3837 20.4213 23.498C20.4213 21.802 21.8011 20.4222 23.4971 20.4222M30.967 23.498C30.967 19.3792 27.6159 16.0281 23.4971 16.0281C19.3782 16.0281 16.0271 19.3792 16.0271 23.498C16.0271 27.6169 19.3782 30.968 23.4971 30.968C27.6159 30.968 30.967 27.6169 30.967 23.498ZM23.4971 24.8162C22.7702 24.8162 22.1789 24.2249 22.1789 23.498C22.1789 22.7712 22.7703 22.1798 23.4971 22.1798C24.224 22.1798 24.8153 22.7712 24.8153 23.498C24.8153 24.2249 24.224 24.8162 23.4971 24.8162Z" stroke="black" stroke-width="1.5"/>
<path d="M35.8005 23.4981C35.8005 16.7139 30.2813 11.1951 23.4975 11.1951C16.7137 11.1951 11.1945 16.7143 11.1945 23.4981C11.1945 30.2819 16.7137 35.8011 23.4975 35.8011C30.2813 35.8011 35.8005 30.2819 35.8005 23.4981ZM12.9509 23.4981C12.9509 17.6832 17.6818 12.9523 23.4967 12.9523C29.3116 12.9523 34.0425 17.6832 34.0425 23.4981C34.0425 29.313 29.3116 34.0439 23.4967 34.0439C17.6818 34.0439 12.9509 29.313 12.9509 23.4981Z" fill="black" stroke="black" stroke-width="1.5"/>
<path d="M6.23856 14.5482C6.37697 14.6282 6.52794 14.6662 6.67702 14.6662C6.98084 14.6662 7.27618 14.5087 7.43877 14.2265C10.2322 9.38827 15.1256 6.04455 20.6256 5.17839C21.0701 6.33156 22.1896 7.15168 23.4972 7.15168C25.1932 7.15168 26.573 5.77193 26.573 4.07584C26.573 2.37975 25.1932 1 23.4972 1C22.0258 1 20.7923 2.03859 20.4913 3.42083C17.5874 3.85711 14.7755 4.93212 12.3246 6.54786C9.7026 8.27632 7.48674 10.6274 5.91648 13.3471C5.67386 13.7676 5.81792 14.305 6.23819 14.5476L6.23856 14.5482ZM23.4975 2.75779C24.2244 2.75779 24.8157 3.34911 24.8157 4.07599C24.8157 4.80288 24.2244 5.3942 23.4975 5.3942C22.7706 5.3942 22.1793 4.80288 22.1793 4.07599C22.1793 3.34911 22.7706 2.75779 23.4975 2.75779Z" fill="black" stroke="black" stroke-width="1.5"/>
<path d="M14.2257 39.5566C9.38715 36.7632 6.04294 31.8698 5.17839 26.3697C6.33124 25.9256 7.15168 24.8057 7.15168 23.4982C7.15168 21.8021 5.77193 20.4224 4.07584 20.4224C2.37975 20.4224 1 21.8021 1 23.4982C1 24.9696 2.03859 26.2031 3.42083 26.5037C3.85711 29.4076 4.93212 32.2195 6.54786 34.6704C8.27632 37.2924 10.6274 39.5083 13.3471 41.0786C13.4855 41.1586 13.6365 41.1966 13.7855 41.1966C14.0893 41.1966 14.3847 41.039 14.5473 40.7569C14.7899 40.3366 14.6458 39.7993 14.2256 39.5564L14.2257 39.5566ZM2.75747 23.498C2.75747 22.7711 3.34879 22.1798 4.07568 22.1798C4.80256 22.1798 5.39388 22.7712 5.39388 23.498C5.39388 24.2249 4.80256 24.8162 4.07568 24.8162C3.34879 24.8162 2.75747 24.2249 2.75747 23.498Z" fill="black" stroke="black" stroke-width="1.5"/>
<path d="M40.7561 32.4484C40.3355 32.2058 39.7982 32.3498 39.5556 32.7701C36.7622 37.6086 31.8688 40.9529 26.3687 41.8182C25.9246 40.6654 24.8047 39.8449 23.4972 39.8449C21.8011 39.8449 20.4214 41.2247 20.4214 42.9208C20.4214 44.6168 21.8011 45.9966 23.4972 45.9966C24.9686 45.9966 26.2021 44.958 26.5031 43.5758C29.407 43.1395 32.2189 42.0645 34.6698 40.4487C37.2918 38.7203 39.5076 36.3692 41.0779 33.6495C41.3205 33.2293 41.1765 32.6916 40.7562 32.449L40.7561 32.4484ZM23.4971 44.2388C22.7702 44.2388 22.1789 43.6475 22.1789 42.9206C22.1789 42.1937 22.7703 41.6024 23.4971 41.6024C24.224 41.6024 24.8154 42.1937 24.8154 42.9206C24.8154 43.6475 24.224 44.2388 23.4971 44.2388Z" fill="black" stroke="black" stroke-width="1.5"/>
<path d="M43.5741 20.4922C43.1379 17.5883 42.0628 14.7764 40.4471 12.3255C38.7186 9.70352 36.3676 7.48765 33.6479 5.91739C33.2273 5.67478 32.69 5.81884 32.4474 6.2391C32.2048 6.65937 32.3488 7.1967 32.7691 7.4396C37.6076 10.233 40.9519 15.1264 41.8172 20.6265C40.6644 21.0706 39.8439 22.1905 39.8439 23.498C39.8439 25.1941 41.2237 26.5738 42.9198 26.5738C44.6158 26.5738 45.9956 25.1941 45.9956 23.498C45.9956 22.0266 44.957 20.7931 43.5748 20.4921L43.5741 20.4922ZM42.9191 24.816C42.1922 24.816 41.6009 24.2246 41.6009 23.4978C41.6009 22.7709 42.1922 22.1795 42.9191 22.1795C43.646 22.1795 44.2373 22.7709 44.2373 23.4978C44.2373 24.2246 43.646 24.816 42.9191 24.816Z" fill="black" stroke="black" stroke-width="1.5"/>
<path d="M73.7261 32H70.1519V14.8672H79.9722V17.8438H73.7261V22.2617H79.5386V25.2266H73.7261V32ZM88.4097 18.6289C90.1675 18.6289 91.5151 19.0117 92.4526 19.7773C93.3901 20.543 93.8589 21.707 93.8589 23.2695V32H91.3628L90.6714 30.2188H90.5776C90.2026 30.6875 89.8198 31.0703 89.4292 31.3672C89.0386 31.6641 88.5894 31.8828 88.0815 32.0234C87.5737 32.1641 86.9565 32.2344 86.23 32.2344C85.4565 32.2344 84.7612 32.0859 84.144 31.7891C83.5347 31.4922 83.0542 31.0391 82.7026 30.4297C82.3511 29.8125 82.1753 29.0312 82.1753 28.0859C82.1753 26.6953 82.6636 25.6719 83.6401 25.0156C84.6167 24.3516 86.0815 23.9844 88.0347 23.9141L90.3081 23.8438V23.2695C90.3081 22.582 90.1284 22.0781 89.769 21.7578C89.4097 21.4375 88.9097 21.2773 88.269 21.2773C87.6362 21.2773 87.0151 21.3672 86.4058 21.5469C85.7964 21.7266 85.187 21.9531 84.5776 22.2266L83.394 19.8125C84.0894 19.4453 84.8667 19.1562 85.7261 18.9453C86.5933 18.7344 87.4878 18.6289 88.4097 18.6289ZM90.3081 25.9297L88.9253 25.9766C87.769 26.0078 86.9644 26.2148 86.5112 26.5977C86.0659 26.9805 85.8433 27.4844 85.8433 28.1094C85.8433 28.6562 86.0034 29.0469 86.3237 29.2812C86.644 29.5078 87.062 29.6211 87.5776 29.6211C88.3433 29.6211 88.9878 29.3945 89.5112 28.9414C90.0425 28.4883 90.3081 27.8438 90.3081 27.0078V25.9297ZM106.691 28.1094C106.691 29 106.48 29.7539 106.058 30.3711C105.644 30.9805 105.023 31.4453 104.195 31.7656C103.367 32.0781 102.335 32.2344 101.101 32.2344C100.187 32.2344 99.4019 32.1758 98.7456 32.0586C98.0972 31.9414 97.4409 31.7461 96.7769 31.4727V28.5195C97.4878 28.8398 98.2495 29.1055 99.062 29.3164C99.8823 29.5195 100.601 29.6211 101.218 29.6211C101.914 29.6211 102.41 29.5195 102.707 29.3164C103.011 29.1055 103.164 28.832 103.164 28.4961C103.164 28.2773 103.101 28.082 102.976 27.9102C102.859 27.7305 102.601 27.5312 102.203 27.3125C101.804 27.0859 101.179 26.793 100.328 26.4336C99.5073 26.0898 98.8315 25.7422 98.3003 25.3906C97.7769 25.0391 97.3862 24.625 97.1284 24.1484C96.8784 23.6641 96.7534 23.0508 96.7534 22.3086C96.7534 21.0977 97.2222 20.1875 98.1597 19.5781C99.105 18.9609 100.367 18.6523 101.945 18.6523C102.757 18.6523 103.531 18.7344 104.265 18.8984C105.007 19.0625 105.769 19.3242 106.55 19.6836L105.472 22.2617C104.824 21.9805 104.21 21.75 103.632 21.5703C103.062 21.3906 102.48 21.3008 101.886 21.3008C101.363 21.3008 100.968 21.3711 100.703 21.5117C100.437 21.6523 100.304 21.8672 100.304 22.1562C100.304 22.3672 100.371 22.5547 100.503 22.7188C100.644 22.8828 100.91 23.0664 101.3 23.2695C101.699 23.4648 102.281 23.7188 103.046 24.0312C103.789 24.3359 104.433 24.6562 104.98 24.9922C105.527 25.3203 105.949 25.7305 106.246 26.2227C106.542 26.707 106.691 27.3359 106.691 28.1094ZM113.054 13.7656V17.4805C113.054 18.1289 113.031 18.7461 112.984 19.332C112.945 19.918 112.914 20.332 112.89 20.5742H113.078C113.359 20.1211 113.691 19.7539 114.074 19.4727C114.464 19.1914 114.894 18.9844 115.363 18.8516C115.832 18.7188 116.335 18.6523 116.875 18.6523C117.82 18.6523 118.644 18.8203 119.347 19.1562C120.05 19.4844 120.597 20.0039 120.988 20.7148C121.378 21.418 121.574 22.332 121.574 23.457V32H118V24.3477C118 23.4102 117.828 22.7031 117.484 22.2266C117.14 21.75 116.609 21.5117 115.89 21.5117C115.171 21.5117 114.605 21.6797 114.191 22.0156C113.777 22.3438 113.484 22.832 113.312 23.4805C113.14 24.1211 113.054 24.9062 113.054 25.8359V32H109.48V13.7656H113.054ZM128.828 18.8984V32H125.253V18.8984H128.828ZM127.046 13.7656C127.578 13.7656 128.035 13.8906 128.417 14.1406C128.8 14.3828 128.992 14.8398 128.992 15.5117C128.992 16.1758 128.8 16.6367 128.417 16.8945C128.035 17.1445 127.578 17.2695 127.046 17.2695C126.507 17.2695 126.046 17.1445 125.664 16.8945C125.289 16.6367 125.101 16.1758 125.101 15.5117C125.101 14.8398 125.289 14.3828 125.664 14.1406C126.046 13.8906 126.507 13.7656 127.046 13.7656ZM144.496 25.4258C144.496 26.5195 144.347 27.4883 144.05 28.332C143.761 29.1758 143.335 29.8906 142.773 30.4766C142.218 31.0547 141.546 31.4922 140.757 31.7891C139.976 32.0859 139.093 32.2344 138.109 32.2344C137.187 32.2344 136.339 32.0859 135.566 31.7891C134.8 31.4922 134.132 31.0547 133.562 30.4766C133 29.8906 132.562 29.1758 132.25 28.332C131.945 27.4883 131.792 26.5195 131.792 25.4258C131.792 23.9727 132.05 22.7422 132.566 21.7344C133.082 20.7266 133.816 19.9609 134.769 19.4375C135.722 18.9141 136.859 18.6523 138.179 18.6523C139.406 18.6523 140.492 18.9141 141.437 19.4375C142.39 19.9609 143.136 20.7266 143.675 21.7344C144.222 22.7422 144.496 23.9727 144.496 25.4258ZM135.437 25.4258C135.437 26.2852 135.531 27.0078 135.718 27.5938C135.906 28.1797 136.199 28.6211 136.597 28.918C136.996 29.2148 137.515 29.3633 138.156 29.3633C138.789 29.3633 139.3 29.2148 139.691 28.918C140.089 28.6211 140.378 28.1797 140.558 27.5938C140.746 27.0078 140.839 26.2852 140.839 25.4258C140.839 24.5586 140.746 23.8398 140.558 23.2695C140.378 22.6914 140.089 22.2578 139.691 21.9688C139.292 21.6797 138.773 21.5352 138.132 21.5352C137.187 21.5352 136.5 21.8594 136.07 22.5078C135.648 23.1562 135.437 24.1289 135.437 25.4258ZM154.89 18.6523C156.289 18.6523 157.414 19.0352 158.265 19.8008C159.117 20.5586 159.542 21.7773 159.542 23.457V32H155.968V24.3477C155.968 23.4102 155.796 22.7031 155.453 22.2266C155.117 21.75 154.585 21.5117 153.859 21.5117C152.765 21.5117 152.019 21.8828 151.621 22.625C151.222 23.3672 151.023 24.4375 151.023 25.8359V32H147.449V18.8984H150.179L150.66 20.5742H150.859C151.14 20.1211 151.488 19.7539 151.902 19.4727C152.324 19.1914 152.789 18.9844 153.296 18.8516C153.812 18.7188 154.343 18.6523 154.89 18.6523ZM167.078 32H163.503V14.8672H173.324V17.8438H167.078V22.2617H172.89V25.2266H167.078V32ZM188.3 25.4258C188.3 26.5195 188.152 27.4883 187.855 28.332C187.566 29.1758 187.14 29.8906 186.578 30.4766C186.023 31.0547 185.351 31.4922 184.562 31.7891C183.781 32.0859 182.898 32.2344 181.914 32.2344C180.992 32.2344 180.144 32.0859 179.371 31.7891C178.605 31.4922 177.937 31.0547 177.367 30.4766C176.804 29.8906 176.367 29.1758 176.054 28.332C175.75 27.4883 175.597 26.5195 175.597 25.4258C175.597 23.9727 175.855 22.7422 176.371 21.7344C176.886 20.7266 177.621 19.9609 178.574 19.4375C179.527 18.9141 180.664 18.6523 181.984 18.6523C183.21 18.6523 184.296 18.9141 185.242 19.4375C186.195 19.9609 186.941 20.7266 187.48 21.7344C188.027 22.7422 188.3 23.9727 188.3 25.4258ZM179.242 25.4258C179.242 26.2852 179.335 27.0078 179.523 27.5938C179.71 28.1797 180.003 28.6211 180.402 28.918C180.8 29.2148 181.32 29.3633 181.96 29.3633C182.593 29.3633 183.105 29.2148 183.496 28.918C183.894 28.6211 184.183 28.1797 184.363 27.5938C184.55 27.0078 184.644 26.2852 184.644 25.4258C184.644 24.5586 184.55 23.8398 184.363 23.2695C184.183 22.6914 183.894 22.2578 183.496 21.9688C183.097 21.6797 182.578 21.5352 181.937 21.5352C180.992 21.5352 180.304 21.8594 179.875 22.5078C179.453 23.1562 179.242 24.1289 179.242 25.4258ZM198.566 18.6523C198.746 18.6523 198.953 18.6641 199.187 18.6875C199.429 18.7031 199.625 18.7266 199.773 18.7578L199.503 22.1094C199.386 22.0703 199.218 22.043 199 22.0273C198.789 22.0039 198.605 21.9922 198.449 21.9922C197.988 21.9922 197.539 22.0508 197.101 22.168C196.671 22.2852 196.285 22.4766 195.941 22.7422C195.597 23 195.324 23.3438 195.121 23.7734C194.925 24.1953 194.828 24.7148 194.828 25.332V32H191.253V18.8984H193.96L194.488 21.1016H194.664C194.921 20.6562 195.242 20.25 195.625 19.8828C196.015 19.5078 196.457 19.2109 196.949 18.9922C197.449 18.7656 197.988 18.6523 198.566 18.6523ZM212.921 32L211.679 27.9219H205.433L204.191 32H200.277L206.324 14.7969H210.765L216.835 32H212.921ZM210.812 24.875L209.57 20.8906C209.492 20.625 209.386 20.2852 209.253 19.8711C209.128 19.4492 209 19.0234 208.867 18.5938C208.742 18.1562 208.64 17.7773 208.562 17.457C208.484 17.7773 208.375 18.1758 208.234 18.6523C208.101 19.1211 207.972 19.5664 207.847 19.9883C207.722 20.4102 207.632 20.7109 207.578 20.8906L206.347 24.875H210.812ZM222.296 32H218.722V13.7656H222.296V32ZM229.632 32H226.058V13.7656H229.632V32Z" fill="black"/>
</svg>
