<svg width="233" height="47" viewBox="0 0 233 47" fill="none" xmlns="http://www.w3.org/2000/svg">
<path d="M31.7203 23.4998C31.7203 19.3809 28.3692 16.0298 24.2504 16.0298C20.1315 16.0298 16.7804 19.3809 16.7804 23.4998C16.7804 27.6186 20.1315 30.9697 24.2504 30.9697C28.3692 30.9697 31.7203 27.6186 31.7203 23.4998ZM24.2504 24.818C23.5235 24.818 22.9322 24.2266 22.9322 23.4998C22.9322 22.7729 23.5236 22.1815 24.2504 22.1815C24.9773 22.1815 25.5686 22.7729 25.5686 23.4998C25.5686 24.2266 24.9773 24.818 24.2504 24.818Z" fill="#3734A9"/>
<path d="M21.4389 28.471C22.2694 28.9424 23.2291 29.2121 24.2504 29.2121C25.2718 29.2121 26.2315 28.9424 27.062 28.471M26.3489 25.7464C27.1675 26.1039 27.891 26.6647 28.4396 27.3794C29.3843 26.36 29.9628 24.9963 29.9628 23.4998C29.9628 20.3498 27.4 17.7874 24.2504 17.7874C21.1005 17.7874 18.5381 20.3502 18.5381 23.4998C18.5381 24.9963 19.1169 26.3596 20.0616 27.3791C20.6102 26.6648 21.3337 26.1036 22.152 25.7464C21.5509 25.1846 21.1746 24.3854 21.1746 23.4998C21.1746 21.8037 22.5544 20.4239 24.2504 20.4239M31.7203 23.4998C31.7203 19.3809 28.3692 16.0298 24.2504 16.0298C20.1315 16.0298 16.7804 19.3809 16.7804 23.4998C16.7804 27.6186 20.1315 30.9697 24.2504 30.9697C28.3692 30.9697 31.7203 27.6186 31.7203 23.4998ZM24.2504 24.818C23.5235 24.818 22.9322 24.2266 22.9322 23.4998C22.9322 22.7729 23.5236 22.1815 24.2504 22.1815C24.9773 22.1815 25.5686 22.7729 25.5686 23.4998C25.5686 24.2266 24.9773 24.818 24.2504 24.818Z" stroke="#3734A9" stroke-width="2"/>
<path d="M36.5538 23.4998C36.5538 16.7156 31.0346 11.1968 24.2508 11.1968C17.467 11.1968 11.9478 16.716 11.9478 23.4998C11.9478 30.2836 17.467 35.8029 24.2508 35.8029C31.0346 35.8029 36.5538 30.2836 36.5538 23.4998ZM13.7042 23.4998C13.7042 17.6849 18.435 12.954 24.25 12.954C30.0649 12.954 34.7958 17.6849 34.7958 23.4998C34.7958 29.3148 30.0649 34.0456 24.25 34.0456C18.435 34.0456 13.7042 29.3148 13.7042 23.4998Z" fill="#3734A9" stroke="#3734A9" stroke-width="2"/>
<path d="M6.99185 14.5499C7.13027 14.6299 7.28124 14.6679 7.43032 14.6679C7.73413 14.6679 8.02948 14.5104 8.19207 14.2282C10.9855 9.38998 15.8789 6.04626 21.3789 5.1801C21.8234 6.33327 22.9429 7.15339 24.2505 7.15339C25.9465 7.15339 27.3263 5.77364 27.3263 4.07755C27.3263 2.38146 25.9465 1.00171 24.2505 1.00171C22.7791 1.00171 21.5456 2.0403 21.2446 3.42254C18.3407 3.85881 15.5288 4.93383 13.0779 6.54957C10.4559 8.27803 8.24003 10.6291 6.66977 13.3488C6.42716 13.7694 6.57122 14.3067 6.99148 14.5493L6.99185 14.5499ZM24.2508 2.7595C24.9777 2.7595 25.569 3.35082 25.569 4.0777C25.569 4.80459 24.9777 5.39591 24.2508 5.39591C23.5239 5.39591 22.9326 4.80459 22.9326 4.0777C22.9326 3.35082 23.5239 2.7595 24.2508 2.7595Z" fill="#3734A9" stroke="#3734A9" stroke-width="2"/>
<path d="M14.979 39.5583C10.1404 36.7649 6.79624 31.8715 5.93168 26.3714C7.08453 25.9273 7.90497 24.8074 7.90497 23.4999C7.90497 21.8038 6.52522 20.4241 4.82914 20.4241C3.13305 20.4241 1.7533 21.8038 1.7533 23.4999C1.7533 24.9713 2.79189 26.2048 4.17413 26.5054C4.6104 29.4093 5.68541 32.2212 7.30115 34.6721C9.02962 37.2941 11.3807 39.51 14.1004 41.0803C14.2388 41.1603 14.3897 41.1983 14.5388 41.1983C14.8426 41.1983 15.138 41.0407 15.3006 40.7586C15.5432 40.3383 15.3991 39.801 14.9789 39.5581L14.979 39.5583ZM3.51077 23.4998C3.51077 22.7728 4.10209 22.1815 4.82897 22.1815C5.55586 22.1815 6.14718 22.7729 6.14718 23.4998C6.14718 24.2266 5.55586 24.818 4.82897 24.818C4.10209 24.818 3.51077 24.2266 3.51077 23.4998Z" fill="#3734A9" stroke="#3734A9" stroke-width="2"/>
<path d="M41.5094 32.4501C41.0888 32.2075 40.5515 32.3516 40.3089 32.7718C37.5155 37.6104 32.6221 40.9546 27.122 41.8199C26.6779 40.6671 25.558 39.8466 24.2505 39.8466C22.5544 39.8466 21.1747 41.2264 21.1747 42.9225C21.1747 44.6186 22.5544 45.9983 24.2505 45.9983C25.7219 45.9983 26.9554 44.9597 27.2564 43.5775C30.1603 43.1412 32.9722 42.0662 35.423 40.4504C38.0451 38.722 40.2609 36.3709 41.8312 33.6512C42.0738 33.231 41.9298 32.6933 41.5095 32.4507L41.5094 32.4501ZM24.2504 44.2405C23.5235 44.2405 22.9322 43.6492 22.9322 42.9223C22.9322 42.1954 23.5236 41.6041 24.2504 41.6041C24.9773 41.6041 25.5686 42.1954 25.5686 42.9223C25.5686 43.6492 24.9773 44.2405 24.2504 44.2405Z" fill="#3734A9" stroke="#3734A9" stroke-width="2"/>
<path d="M44.3274 20.4939C43.8912 17.59 42.8161 14.7781 41.2004 12.3273C39.4719 9.70523 37.1208 7.48936 34.4012 5.9191C33.9806 5.67649 33.4433 5.82055 33.2007 6.24081C32.9581 6.66108 33.1021 7.19841 33.5224 7.44131C38.3609 10.2347 41.7052 15.1281 42.5705 20.6282C41.4177 21.0723 40.5972 22.1922 40.5972 23.4997C40.5972 25.1958 41.977 26.5755 43.6731 26.5755C45.3691 26.5755 46.7489 25.1958 46.7489 23.4997C46.7489 22.0283 45.7103 20.7948 44.3281 20.4938L44.3274 20.4939ZM43.6724 24.8177C42.9455 24.8177 42.3542 24.2263 42.3542 23.4995C42.3542 22.7726 42.9455 22.1813 43.6724 22.1813C44.3993 22.1813 44.9906 22.7726 44.9906 23.4995C44.9906 24.2263 44.3993 24.8177 43.6724 24.8177Z" fill="#3734A9" stroke="#3734A9" stroke-width="2"/>
<path d="M74.4794 32.0017H70.9052V14.8689H80.7255V17.8455H74.4794V22.2634H80.2919V25.2283H74.4794V32.0017ZM89.163 18.6306C90.9208 18.6306 92.2684 19.0134 93.2059 19.7791C94.1434 20.5447 94.6122 21.7087 94.6122 23.2712V32.0017H92.1161L91.4247 30.2205H91.3309C90.9559 30.6892 90.5731 31.072 90.1825 31.3689C89.7919 31.6658 89.3427 31.8845 88.8348 32.0251C88.327 32.1658 87.7098 32.2361 86.9833 32.2361C86.2098 32.2361 85.5145 32.0876 84.8973 31.7908C84.288 31.4939 83.8075 31.0408 83.4559 30.4314C83.1044 29.8142 82.9286 29.033 82.9286 28.0876C82.9286 26.697 83.4169 25.6736 84.3934 25.0173C85.37 24.3533 86.8348 23.9861 88.788 23.9158L91.0614 23.8455V23.2712C91.0614 22.5837 90.8817 22.0798 90.5223 21.7595C90.163 21.4392 89.663 21.2791 89.0223 21.2791C88.3895 21.2791 87.7684 21.3689 87.1591 21.5486C86.5497 21.7283 85.9403 21.9548 85.3309 22.2283L84.1473 19.8142C84.8427 19.447 85.62 19.158 86.4794 18.947C87.3466 18.7361 88.2411 18.6306 89.163 18.6306ZM91.0614 25.9314L89.6786 25.9783C88.5223 26.0095 87.7177 26.2166 87.2645 26.5994C86.8192 26.9822 86.5966 27.4861 86.5966 28.1111C86.5966 28.658 86.7567 29.0486 87.077 29.283C87.3973 29.5095 87.8153 29.6228 88.3309 29.6228C89.0966 29.6228 89.7411 29.3962 90.2645 28.9431C90.7958 28.49 91.0614 27.8455 91.0614 27.0095V25.9314ZM107.444 28.1111C107.444 29.0017 107.233 29.7556 106.811 30.3728C106.397 30.9822 105.776 31.447 104.948 31.7673C104.12 32.0798 103.089 32.2361 101.854 32.2361C100.94 32.2361 100.155 32.1775 99.4989 32.0603C98.8505 31.9431 98.1942 31.7478 97.5302 31.4744V28.5212C98.2411 28.8416 99.0028 29.1072 99.8153 29.3181C100.636 29.5212 101.354 29.6228 101.972 29.6228C102.667 29.6228 103.163 29.5212 103.46 29.3181C103.765 29.1072 103.917 28.8337 103.917 28.4978C103.917 28.2791 103.854 28.0837 103.729 27.9119C103.612 27.7322 103.354 27.533 102.956 27.3142C102.557 27.0876 101.932 26.7947 101.081 26.4353C100.261 26.0916 99.5848 25.7439 99.0536 25.3923C98.5302 25.0408 98.1395 24.6267 97.8817 24.1501C97.6317 23.6658 97.5067 23.0525 97.5067 22.3103C97.5067 21.0994 97.9755 20.1892 98.913 19.5798C99.8583 18.9626 101.12 18.6541 102.698 18.6541C103.511 18.6541 104.284 18.7361 105.018 18.9001C105.761 19.0642 106.522 19.3259 107.304 19.6853L106.225 22.2634C105.577 21.9822 104.964 21.7517 104.386 21.572C103.815 21.3923 103.233 21.3025 102.64 21.3025C102.116 21.3025 101.722 21.3728 101.456 21.5134C101.19 21.6541 101.057 21.8689 101.057 22.158C101.057 22.3689 101.124 22.5564 101.257 22.7205C101.397 22.8845 101.663 23.0681 102.054 23.2712C102.452 23.4666 103.034 23.7205 103.8 24.033C104.542 24.3376 105.186 24.658 105.733 24.9939C106.28 25.322 106.702 25.7322 106.999 26.2244C107.296 26.7087 107.444 27.3376 107.444 28.1111ZM113.807 13.7673V17.4822C113.807 18.1306 113.784 18.7478 113.737 19.3337C113.698 19.9197 113.667 20.3337 113.643 20.5759H113.831C114.112 20.1228 114.444 19.7556 114.827 19.4744C115.218 19.1931 115.647 18.9861 116.116 18.8533C116.585 18.7205 117.089 18.6541 117.628 18.6541C118.573 18.6541 119.397 18.822 120.1 19.158C120.804 19.4861 121.35 20.0056 121.741 20.7166C122.132 21.4197 122.327 22.3337 122.327 23.4587V32.0017H118.753V24.3494C118.753 23.4119 118.581 22.7048 118.237 22.2283C117.893 21.7517 117.362 21.5134 116.643 21.5134C115.925 21.5134 115.358 21.6814 114.944 22.0173C114.53 22.3455 114.237 22.8337 114.065 23.4822C113.893 24.1228 113.807 24.908 113.807 25.8376V32.0017H110.233V13.7673H113.807ZM129.581 18.9001V32.0017H126.007V18.9001H129.581ZM127.8 13.7673C128.331 13.7673 128.788 13.8923 129.171 14.1423C129.554 14.3845 129.745 14.8416 129.745 15.5134C129.745 16.1775 129.554 16.6384 129.171 16.8962C128.788 17.1462 128.331 17.2712 127.8 17.2712C127.261 17.2712 126.8 17.1462 126.417 16.8962C126.042 16.6384 125.854 16.1775 125.854 15.5134C125.854 14.8416 126.042 14.3845 126.417 14.1423C126.8 13.8923 127.261 13.7673 127.8 13.7673ZM145.249 25.4275C145.249 26.5212 145.1 27.49 144.804 28.3337C144.515 29.1775 144.089 29.8923 143.526 30.4783C142.972 31.0564 142.3 31.4939 141.511 31.7908C140.729 32.0876 139.847 32.2361 138.862 32.2361C137.94 32.2361 137.093 32.0876 136.319 31.7908C135.554 31.4939 134.886 31.0564 134.315 30.4783C133.753 29.8923 133.315 29.1775 133.003 28.3337C132.698 27.49 132.546 26.5212 132.546 25.4275C132.546 23.9744 132.804 22.7439 133.319 21.7361C133.835 20.7283 134.569 19.9626 135.522 19.4392C136.475 18.9158 137.612 18.6541 138.932 18.6541C140.159 18.6541 141.245 18.9158 142.19 19.4392C143.143 19.9626 143.89 20.7283 144.429 21.7361C144.975 22.7439 145.249 23.9744 145.249 25.4275ZM136.19 25.4275C136.19 26.2869 136.284 27.0095 136.472 27.5955C136.659 28.1814 136.952 28.6228 137.35 28.9197C137.749 29.2166 138.268 29.365 138.909 29.365C139.542 29.365 140.054 29.2166 140.444 28.9197C140.843 28.6228 141.132 28.1814 141.311 27.5955C141.499 27.0095 141.593 26.2869 141.593 25.4275C141.593 24.5603 141.499 23.8416 141.311 23.2712C141.132 22.6931 140.843 22.2595 140.444 21.9705C140.046 21.6814 139.526 21.5369 138.886 21.5369C137.94 21.5369 137.253 21.8611 136.823 22.5095C136.401 23.158 136.19 24.1306 136.19 25.4275ZM155.643 18.6541C157.042 18.6541 158.167 19.0369 159.018 19.8025C159.87 20.5603 160.296 21.7791 160.296 23.4587V32.0017H156.722V24.3494C156.722 23.4119 156.55 22.7048 156.206 22.2283C155.87 21.7517 155.339 21.5134 154.612 21.5134C153.518 21.5134 152.772 21.8845 152.374 22.6267C151.975 23.3689 151.776 24.4392 151.776 25.8376V32.0017H148.202V18.9001H150.932L151.413 20.5759H151.612C151.893 20.1228 152.241 19.7556 152.655 19.4744C153.077 19.1931 153.542 18.9861 154.05 18.8533C154.565 18.7205 155.097 18.6541 155.643 18.6541ZM167.831 32.0017H164.257V14.8689H174.077V17.8455H167.831V22.2634H173.643V25.2283H167.831V32.0017ZM189.054 25.4275C189.054 26.5212 188.905 27.49 188.608 28.3337C188.319 29.1775 187.893 29.8923 187.331 30.4783C186.776 31.0564 186.104 31.4939 185.315 31.7908C184.534 32.0876 183.651 32.2361 182.667 32.2361C181.745 32.2361 180.897 32.0876 180.124 31.7908C179.358 31.4939 178.69 31.0564 178.12 30.4783C177.557 29.8923 177.12 29.1775 176.807 28.3337C176.503 27.49 176.35 26.5212 176.35 25.4275C176.35 23.9744 176.608 22.7439 177.124 21.7361C177.64 20.7283 178.374 19.9626 179.327 19.4392C180.28 18.9158 181.417 18.6541 182.737 18.6541C183.964 18.6541 185.05 18.9158 185.995 19.4392C186.948 19.9626 187.694 20.7283 188.233 21.7361C188.78 22.7439 189.054 23.9744 189.054 25.4275ZM179.995 25.4275C179.995 26.2869 180.089 27.0095 180.276 27.5955C180.464 28.1814 180.757 28.6228 181.155 28.9197C181.554 29.2166 182.073 29.365 182.714 29.365C183.347 29.365 183.858 29.2166 184.249 28.9197C184.647 28.6228 184.936 28.1814 185.116 27.5955C185.304 27.0095 185.397 26.2869 185.397 25.4275C185.397 24.5603 185.304 23.8416 185.116 23.2712C184.936 22.6931 184.647 22.2595 184.249 21.9705C183.85 21.6814 183.331 21.5369 182.69 21.5369C181.745 21.5369 181.057 21.8611 180.628 22.5095C180.206 23.158 179.995 24.1306 179.995 25.4275ZM199.319 18.6541C199.499 18.6541 199.706 18.6658 199.94 18.6892C200.182 18.7048 200.378 18.7283 200.526 18.7595L200.257 22.1111C200.14 22.072 199.972 22.0447 199.753 22.0291C199.542 22.0056 199.358 21.9939 199.202 21.9939C198.741 21.9939 198.292 22.0525 197.854 22.1697C197.425 22.2869 197.038 22.4783 196.694 22.7439C196.35 23.0017 196.077 23.3455 195.874 23.7751C195.679 24.197 195.581 24.7166 195.581 25.3337V32.0017H192.007V18.9001H194.714L195.241 21.1033H195.417C195.675 20.658 195.995 20.2517 196.378 19.8845C196.768 19.5095 197.21 19.2126 197.702 18.9939C198.202 18.7673 198.741 18.6541 199.319 18.6541ZM213.675 32.0017L212.432 27.9236H206.186L204.944 32.0017H201.03L207.077 14.7986H211.518L217.589 32.0017H213.675ZM211.565 24.8767L210.323 20.8923C210.245 20.6267 210.14 20.2869 210.007 19.8728C209.882 19.4509 209.753 19.0251 209.62 18.5955C209.495 18.158 209.393 17.7791 209.315 17.4587C209.237 17.7791 209.128 18.1775 208.987 18.6541C208.854 19.1228 208.725 19.5681 208.6 19.99C208.475 20.4119 208.386 20.7126 208.331 20.8923L207.1 24.8767H211.565ZM223.05 32.0017H219.475V13.7673H223.05V32.0017ZM230.386 32.0017H226.811V13.7673H230.386V32.0017Z" fill="#3734A9"/>
</svg>
