<svg width="28" height="27" viewBox="0 0 28 27" fill="none" xmlns="http://www.w3.org/2000/svg">
<path d="M17.6842 15.75H16.7955L16.4805 15.4463C17.6211 14.1233 18.2479 12.4343 18.2467 10.6875C18.2467 9.24123 17.8178 7.82743 17.0143 6.6249C16.2108 5.42236 15.0688 4.4851 13.7326 3.93163C12.3964 3.37817 10.9261 3.23336 9.50761 3.51551C8.08912 3.79767 6.78616 4.49411 5.76349 5.51678C4.74082 6.53946 4.04437 7.84242 3.76222 9.2609C3.48006 10.6794 3.62487 12.1497 4.17834 13.4859C4.7318 14.8221 5.66907 15.9641 6.8716 16.7676C8.07413 17.5711 9.48793 18 10.9342 18C12.7455 18 14.4105 17.3363 15.693 16.2338L15.9967 16.5488V17.4375L21.6217 23.0513L23.298 21.375L17.6842 15.75ZM10.9342 15.75C8.13296 15.75 5.87171 13.4888 5.87171 10.6875C5.87171 7.88625 8.13296 5.625 10.9342 5.625C13.7355 5.625 15.9967 7.88625 15.9967 10.6875C15.9967 13.4888 13.7355 15.75 10.9342 15.75Z" fill="#3734A9"/>
</svg>
