<svg width="12" height="10" viewBox="0 0 12 10" fill="none" xmlns="http://www.w3.org/2000/svg">
<path d="M11.0426 0.98041C11.0424 0.980371 11.0422 0.980296 11.042 0.980272L7.30289 0.311955C7.02278 0.261893 6.76444 0.450692 6.72588 0.733739C6.68733 1.01675 6.88317 1.28677 7.1633 1.33685L9.67369 1.78553L1.01744 8.07986C0.791694 8.24401 0.746741 8.56832 0.917034 8.80425C1.08733 9.04017 1.40836 9.09836 1.63411 8.93421L10.2903 2.63989L9.93289 5.1739C9.89301 5.45667 10.0876 5.72758 10.3676 5.779C10.6476 5.83045 10.9068 5.64284 10.9467 5.36012L11.4791 1.58582C11.4791 1.5856 11.4791 1.58538 11.4792 1.58515C11.5187 1.30176 11.3224 1.03079 11.0426 0.98041Z" fill="white"/>
</svg>
